<?xml version="1.0" encoding="utf-8"?>
<!-- Generator: Adobe Illustrator 22.0.1, SVG Export Plug-In . SVG Version: 6.00 Build 0)  -->
<svg version="1.1" id="Layer_1" xmlns="http://www.w3.org/2000/svg" xmlns:xlink="http://www.w3.org/1999/xlink" x="0px" y="0px"
	 viewBox="0 0 166 93.3" enable-background="new 0 0 166 93.3" xml:space="preserve">
<g>
	<g>
		<path d="M164.2,74.3c0,0.1,0,0.1,0,0.2c-0.2,0.8-1.4,1.1-3,1.3c-11.3,0.9-22.7,1.9-34,2.8C105.8,80.4,84.4,82.2,63,84
			c-9.7,0.8-19.3,1.6-29,2.4c-1.7,0.1-3.5,0.1-5.2,0.3c-0.2,0-0.4,0-0.7,0c-1.4-0.2-1.8-0.8-2.1-1.4c-1.5-4.1-3-8.1-4.5-12.1
			c-3.3-8.9-6.6-17.7-9.9-26.6c-0.4-1.1-0.9-2.2-1.2-3.4c-0.2-0.6-0.7-0.9-1.9-1c-6.9-0.8-8.3-4.8-3.6-6.9c0.9-0.4,1-0.7,0.6-1.2
			c-0.7-0.9-1.3-1.8-1.9-2.7c-0.8-1.1-1.6-2.2-1.9-3.3c0-0.1,0-0.1,0-0.2C2,27.1,3,26.8,4.4,26.6c16.5-2.6,33.1-5.2,49.7-7.8
			c4.1-0.6,8.1-1.3,12.2-1.9c9.3-1.5,18.5-3,27.8-4.4c12-1.8,23.9-3.8,36-5.6c0.2,0,0.4-0.1,0.6-0.1c3.6-0.4,4.4-0.2,5.6,1.4
			c1.9,2.8,4,5.6,5.8,8.4c0.8,1.3,0.2,1.8-2.6,2.3c-5.4,0.8-10.7,1.7-16.1,2.5c-16,2.5-32.1,5-48.1,7.5c-15.3,2.4-30.8,4.8-46.1,7.2
			c-0.9,0.1-1.8,0.2-2.7,0.4c-0.5,0-0.9,0.1-1.4,0.2c-0.4,0-0.8,0.2-1,0.1c0.4,0,1.1-0.1,1.7-0.2c0.6,0,1.2-0.1,1.7-0.2
			c11.6-1.1,23.3-2,35-3c23-1.9,46-3.9,69.1-5.8c3.6-0.3,7.2-0.6,10.9-0.9c0.4,0,0.9-0.1,1.3-0.1c2.3-0.1,3.2,0.2,3.7,1.3
			c0.8,2.1,1.6,4.3,2.4,6.4c1.6,4.5,3.3,8.9,5,13.4c3,8,5.9,16,8.9,24C163.9,72.7,163.8,73.5,164.2,74.3z"/>
		<path fill="#FEFEFE" d="M51,31.5c5-3.4,9.9-6.8,14.8-10.2c1.5-1,3-2,4.4-3c0.9-0.7,2-1.1,3.6-1.3c5.8-0.9,11.6-1.8,17.4-2.7
			c0.5-0.1,0.9-0.2,1.4-0.1c0,0.3-0.5,0.5-0.8,0.7c-6.2,4.3-12.4,8.5-18.6,12.8c-0.4,0.3-0.8,0.5-1.6,0.6c-6.6,1-13.3,2.1-19.9,3.1
			C51.5,31.5,51.3,31.5,51,31.5z"/>
		<path fill="#FEFEFE" d="M91.8,25.1c6.2-4.3,12.4-8.5,18.4-12.7c1.5-1.1,3.3-1.7,5.8-2c5.3-0.8,10.6-1.6,15.9-2.5
			c0.4-0.1,0.9-0.3,1.3-0.1c0.3,0.2-0.2,0.4-0.5,0.6c-5.9,4.1-11.9,8.2-17.8,12.3c-1.2,0.8-2.6,1.3-4.6,1.6
			c-5.8,0.9-11.6,1.8-17.4,2.7C92.6,25,92.3,25.1,91.8,25.1z"/>
		<path fill="#FEFEFE" d="M56.2,45.7c3.1-1.6,6-3.1,8.9-4.6c4.8-2.5,9.6-4.9,14.4-7.4c0.7-0.3,1.3-0.6,2.3-0.6
			c6.9-0.6,13.8-1.1,21-1.7c-0.7,0.4-1.3,0.7-1.8,1c-7.2,3.7-14.3,7.3-21.5,11c-0.5,0.3-1.1,0.5-1.9,0.6
			C70.6,44.5,63.5,45.1,56.2,45.7z"/>
		<path fill="#FEFEFE" d="M144.7,27.9c0.1,0.3-0.5,0.4-0.8,0.6c-7.3,3.7-14.5,7.4-21.8,11.2c-0.8,0.4-1.7,0.7-2.9,0.7
			c-6.6,0.5-13.1,1.1-19.7,1.7c-0.2,0-0.4,0-0.9,0c2.6-1.3,5.1-2.6,7.6-3.9c5.2-2.7,10.4-5.3,15.5-8c0.7-0.4,1.5-0.6,2.6-0.7
			c6.5-0.5,12.9-1.1,19.4-1.6C144,27.9,144.4,27.9,144.7,27.9z"/>
		<path fill="#FEFEFE" d="M60.6,34.9c-2.7,1.4-5.1,2.6-7.6,3.9c-5.2,2.7-10.4,5.3-15.5,8c-0.9,0.5-1.8,0.7-3,0.8
			c-6,0.5-12.1,1-18.1,1.5c-0.4,0-0.8,0.3-1.1-0.1c-0.3-0.3-0.1-0.4,0.3-0.6C23,44.6,30.3,40.8,37.7,37c0.3-0.2,0.7-0.3,1.1-0.3
			C46,36.1,53.1,35.5,60.6,34.9z"/>
		<path fill="#FEFEFE" d="M52.3,20.4c-5,3.4-9.8,6.7-14.6,10c-1.7,1.2-3.5,2.3-5.1,3.5c-0.7,0.5-1.5,0.8-2.6,1
			c-3.6,0.5-7.2,1.1-10.7,1.7c-0.8,0.1-1.3,0.1-1.7-0.3c-0.5-0.5-1.3-0.9-2.3-1.2c-0.6-0.2-0.6-0.3-0.2-0.6
			c5.1-3.5,10.1-7,15.2-10.4c0.3-0.2,0.6-0.3,1.2-0.4C38.3,22.6,45.1,21.5,52.3,20.4z"/>
		<path fill="#FDFDFD" d="M4.8,38.2c0-1.9,4.2-3.3,7.9-2.7c0.7,0.1,1,0.2,0.4,0.6c-1.9,1.3-3.8,2.6-5.7,3.9c-0.5,0.4-0.8,0.3-1.3,0
			C5.3,39.5,4.7,38.9,4.8,38.2z"/>
		<path fill="#FDFDFD" d="M14.8,36.2c2.1,1.1,2.5,2.4,1.1,3.5c-1.3,1-3.9,1.6-6.5,1.4c-1-0.1-1.6-0.2-0.7-0.8
			C10.8,38.9,12.7,37.6,14.8,36.2z"/>
		<path fill="#FBFBFB" d="M138.2,14.9c0.6,0.9,1.1,1.6,1.6,2.3c0.1,0.2,0.4,0.4-0.1,0.5c-2.3,0.3-4.5,0.8-7.1,1
			C134.5,17.4,136.2,16.2,138.2,14.9z"/>
		<path fill="#FBFBFB" d="M11.1,27.1c-1.7,1.1-3.3,2.3-5.2,3.6c-0.6-0.9-1.2-1.6-1.7-2.4c-0.1-0.2-0.1-0.3,0.3-0.4
			c2.1-0.3,4.2-0.7,6.3-1C10.9,26.9,11,27,11.1,27.1z"/>
		<path fill="#FBFBFB" d="M147.4,35.2c0.4,0.9,0.6,1.6,0.9,2.4c0.1,0.2,0.1,0.4-0.6,0.4c-2.1,0.2-4.3,0.3-6.9,0.6
			C143.2,37.4,145.2,36.4,147.4,35.2z"/>
		<path fill="#CBCBCB" d="M26.2,36.5c0.3,0.2,0.7,0.1,1,0.1c-0.5,0.2-1.1,0.1-1.6,0.2c-0.3,0-0.7,0.1-0.7-0.2
			C25.3,36.6,25.8,36.6,26.2,36.5z"/>
		<path fill="#A3A3A3" d="M24.9,36.7c0.2,0.1,0.5,0.1,0.7,0.2c-0.7,0.2-1.4,0.2-2.4,0.1C23.9,36.8,24.4,36.7,24.9,36.7z"/>
	</g>
	<g>
		<path fill="#FF6D00" stroke="#FFFFFF" stroke-width="1.5894" stroke-miterlimit="10" d="M48.2,52.6c1.2,0.4,1.8,1,1.8,1.7
			c0,0.2-0.1,0.7-0.3,1.3l-5,14.6c0,0.1-0.1,0.3-0.2,0.4c-0.1,0.2-0.3,0.4-0.7,0.7c-0.4,0.3-0.8,0.4-1.3,0.4c-0.5,0-1-0.1-1.3-0.4
			c-0.4-0.3-0.6-0.6-0.7-0.9l-3.1-9.1c-1.9,5.7-2.9,8.7-3,8.8c0,0.1-0.1,0.3-0.2,0.4c-0.1,0.2-0.3,0.4-0.4,0.5
			c-0.4,0.4-0.9,0.6-1.4,0.6c-0.6,0-1-0.1-1.4-0.4c-0.4-0.3-0.6-0.5-0.7-0.8l-0.2-0.4l-5.1-14.6c-0.2-0.6-0.3-1-0.3-1.3
			c0-0.7,0.6-1.3,1.8-1.7c0.5-0.2,1-0.3,1.4-0.3c0.4,0,0.7,0.1,0.9,0.4c0.2,0.3,0.4,0.7,0.6,1.3l2.9,8.8l2.9-8.6
			c0.2-0.7,0.7-1.2,1.3-1.5c0.3-0.1,0.6-0.2,1.1-0.2s0.9,0.1,1.2,0.4c0.4,0.3,0.6,0.6,0.7,0.9l3,9.1l2.9-8.8
			c0.1-0.4,0.3-0.7,0.3-0.9c0.1-0.2,0.2-0.4,0.5-0.6c0.2-0.2,0.5-0.3,0.9-0.3C47.3,52.3,47.7,52.4,48.2,52.6z"/>
		<path fill="#FF6D00" stroke="#FFFFFF" stroke-width="1.5894" stroke-miterlimit="10" d="M60,57.9c1.7,0,3.2,0.7,4.4,2
			c1.2,1.3,1.7,3,1.7,4.9v4.6c0,0.4,0,0.7,0,0.9c0,0.2-0.1,0.4-0.2,0.7c-0.2,0.5-0.9,0.7-2,0.7c-1.1,0-1.7-0.2-2-0.7
			c-0.1-0.3-0.2-0.5-0.2-0.7c0-0.2,0-0.5,0-0.9v-4.6c0-0.7-0.2-1.3-0.6-1.7c-0.4-0.4-0.9-0.6-1.5-0.6c-0.6,0-1.2,0.2-1.6,0.6
			c-0.5,0.4-0.7,0.8-0.8,1.3v5.1c0,0.4,0,0.7,0,0.9c0,0.2-0.1,0.4-0.2,0.7c-0.2,0.5-0.9,0.7-2,0.7c-1.1,0-1.8-0.2-2-0.7
			c-0.1-0.3-0.2-0.5-0.2-0.7c0-0.2,0-0.5,0-0.9V53.7c0-0.4,0-0.7,0-0.9c0-0.2,0.1-0.4,0.2-0.7c0.2-0.5,0.9-0.7,2-0.7
			c1.1,0,1.8,0.2,2,0.7c0.1,0.3,0.2,0.5,0.2,0.7c0,0.2,0,0.5,0,0.9v5.8C57.8,58.4,58.8,57.9,60,57.9z"/>
		<path fill="#FF6D00" stroke="#FFFFFF" stroke-width="1.5894" stroke-miterlimit="10" d="M78.1,59.3c0.1-1,0.8-1.5,2.1-1.5
			c0.7,0,1.2,0.1,1.5,0.2c0.3,0.1,0.6,0.3,0.7,0.6c0.1,0.3,0.2,0.5,0.2,0.7c0,0.2,0,0.5,0,0.9v9.2c0,0.4,0,0.7,0,0.9
			c0,0.2-0.1,0.4-0.2,0.7c-0.2,0.5-0.8,0.7-1.8,0.7c-1,0-1.6-0.1-1.9-0.4c-0.3-0.2-0.5-0.6-0.6-1c-0.6,0.9-1.7,1.4-3.2,1.4
			c-1.5,0-2.9-0.7-4.2-2.1c-1.3-1.4-1.9-3-1.9-4.8c0-1.8,0.7-3.4,2-4.8c1.3-1.4,2.7-2.1,4.3-2.1c0.6,0,1.1,0.1,1.6,0.3
			c0.5,0.2,0.8,0.4,1,0.6C77.8,59,78,59.2,78.1,59.3z M73.3,64.8c0,0.6,0.2,1.1,0.7,1.6c0.5,0.5,1,0.7,1.7,0.7
			c0.6,0,1.2-0.2,1.6-0.7c0.4-0.5,0.6-1,0.6-1.6c0-0.6-0.2-1.1-0.6-1.6c-0.4-0.5-1-0.7-1.7-0.7c-0.7,0-1.3,0.2-1.7,0.7
			C73.5,63.7,73.3,64.2,73.3,64.8z"/>
		<path fill="#FF6D00" stroke="#FFFFFF" stroke-width="1.5894" stroke-miterlimit="10" d="M93.7,62.5L92,62.4V66
			c0,0.5,0.1,0.8,0.2,1c0.1,0.2,0.4,0.3,0.8,0.3c0.4,0,0.7,0,0.9,0c0.2,0,0.5,0.1,0.7,0.2c0.4,0.2,0.6,0.8,0.6,1.8
			c0,1.1-0.2,1.8-0.7,2c-0.3,0.1-0.5,0.2-0.7,0.2c-0.2,0-0.5,0-0.9,0c-1.8,0-3.2-0.4-4.1-1.2c-0.9-0.8-1.4-2.2-1.4-4.2v-3.9
			c-0.3,0.1-0.7,0.1-1.1,0.1c-0.4,0-0.7-0.1-1-0.4c-0.3-0.3-0.4-0.8-0.4-1.5c0-0.7,0-1.2,0.1-1.6c0.1-0.3,0.2-0.6,0.4-0.7
			c0.3-0.2,0.6-0.3,1.1-0.3l0.9,0.1v-2.7c0-0.4,0-0.7,0-0.9c0-0.2,0.1-0.4,0.2-0.6c0.2-0.4,0.9-0.7,2-0.7c1.2,0,1.9,0.3,2.1,1
			c0.1,0.3,0.1,0.7,0.1,1.3V58c0.8-0.1,1.4-0.1,1.7-0.1c0.4,0,0.7,0,0.9,0c0.2,0,0.4,0.1,0.7,0.2c0.5,0.2,0.7,0.9,0.7,2
			c0,1.1-0.2,1.8-0.7,2c-0.3,0.1-0.5,0.2-0.7,0.2C94.4,62.5,94.1,62.5,93.7,62.5z"/>
		<path fill="#FF6D00" stroke="#FFFFFF" stroke-width="1.5894" stroke-miterlimit="10" d="M111.1,52.4c0.4,0,0.7,0,0.9,0
			c0.2,0,0.4,0.1,0.7,0.2c0.3,0.1,0.4,0.4,0.5,0.7c0.1,0.3,0.2,0.8,0.2,1.3c0,0.6-0.1,1-0.2,1.3c-0.1,0.3-0.3,0.6-0.6,0.7
			s-0.5,0.2-0.7,0.2c-0.2,0-0.5,0-0.9,0h-8v2.7h5.2c0.4,0,0.7,0,0.9,0c0.2,0,0.4,0.1,0.7,0.2c0.5,0.3,0.7,1,0.7,2.1
			c0,1.2-0.3,2-1,2.2c-0.3,0.1-0.7,0.1-1.3,0.1H103v5c0,0.4,0,0.7,0,0.9c0,0.2-0.1,0.4-0.2,0.7c-0.2,0.5-0.9,0.7-2,0.7
			c-1.2,0-1.9-0.3-2.2-1c-0.1-0.3-0.2-0.7-0.2-1.3V54.8c0-0.9,0.2-1.5,0.5-1.8c0.3-0.3,1-0.5,1.9-0.5H111.1z"/>
		<path fill="#FF6D00" stroke="#FFFFFF" stroke-width="1.5894" stroke-miterlimit="10" d="M119.8,55.3c-0.1,0.3-0.4,0.4-0.7,0.5
			c-0.3,0.1-0.8,0.2-1.3,0.2c-0.6,0-1-0.1-1.3-0.2c-0.3-0.1-0.6-0.3-0.7-0.6c-0.1-0.3-0.2-0.5-0.2-0.7c0-0.2,0-0.5,0-0.9
			c0-0.4,0-0.7,0-0.9c0-0.2,0.1-0.4,0.2-0.7c0.2-0.5,0.9-0.7,2-0.7c1.1,0,1.8,0.2,2,0.7c0.1,0.3,0.2,0.5,0.2,0.7c0,0.2,0,0.5,0,0.9
			c0,0.4,0,0.7,0,0.9C120,54.8,119.9,55,119.8,55.3z M115.5,60.2c0-0.4,0-0.7,0-0.9c0-0.2,0.1-0.4,0.2-0.7c0.2-0.5,0.9-0.7,2-0.7
			c0.8,0,1.4,0.1,1.8,0.4c0.3,0.2,0.5,0.6,0.5,1.1c0,0.2,0,0.4,0,0.8v9.2c0,0.4,0,0.7,0,0.9c0,0.2-0.1,0.4-0.2,0.7
			c-0.2,0.5-0.9,0.7-2,0.7c-1.1,0-1.8-0.2-2-0.7c-0.1-0.3-0.2-0.5-0.2-0.7c0-0.2,0-0.5,0-0.9V60.2z"/>
		<path fill="#FF6D00" stroke="#FFFFFF" stroke-width="1.5894" stroke-miterlimit="10" d="M123.1,53.7c0-0.4,0-0.7,0-0.9
			c0-0.2,0.1-0.4,0.2-0.7c0.2-0.5,0.9-0.7,2-0.7c1.1,0,1.7,0.2,2,0.7c0.1,0.3,0.2,0.5,0.2,0.7c0,0.2,0,0.5,0,0.9v12.2
			c0,0.6,0.1,1,0.2,1.2c0.1,0.2,0.3,0.2,0.7,0.2c0.4,0,0.6,0,0.7,0c0.1,0,0.3,0.1,0.4,0.2c0.3,0.2,0.5,0.8,0.5,1.9
			c0,1.1-0.2,1.8-0.5,2c-0.5,0.3-1.5,0.4-3.3,0.2c-1.3-0.2-2.2-0.6-2.6-1.3c-0.5-0.9-0.7-2.2-0.7-4.1V53.7z"/>
		<path fill="#FF6D00" stroke="#FFFFFF" stroke-width="1.5894" stroke-miterlimit="10" d="M137.1,59.7c0.8-1.2,1.8-1.9,3-1.9
			c1.8,0,3.1,0.8,4,2.3c0.2-0.3,0.4-0.5,0.7-0.8c0.3-0.3,0.7-0.6,1.3-0.9c0.6-0.3,1.2-0.5,1.8-0.5c1.4,0,2.6,0.5,3.5,1.6
			c0.9,1.1,1.4,2.9,1.4,5.3v4.6c0,0.4,0,0.7,0,0.9c0,0.2-0.1,0.4-0.2,0.7c-0.2,0.5-0.9,0.7-2,0.7c-1.1,0-1.8-0.2-2-0.7
			c-0.1-0.3-0.2-0.5-0.2-0.7c0-0.2,0-0.5,0-0.9v-4.6c0-1.5-0.5-2.3-1.6-2.3c-0.6,0-1,0.2-1.2,0.6c-0.2,0.4-0.3,1-0.3,1.7v4.6
			c0,0.4,0,0.7,0,0.9c0,0.2-0.1,0.4-0.2,0.7c-0.2,0.5-0.9,0.7-2,0.7c-1.1,0-1.8-0.2-2-0.7c-0.1-0.3-0.2-0.5-0.2-0.7
			c0-0.2,0-0.5,0-0.9v-4.6c0-1.5-0.5-2.3-1.6-2.3c-1,0-1.6,0.8-1.6,2.3v4.6c0,0.4,0,0.7,0,0.9c0,0.2-0.1,0.4-0.2,0.7
			c-0.3,0.5-0.9,0.7-2,0.7c-1.1,0-1.8-0.2-2-0.7c-0.1-0.3-0.2-0.5-0.2-0.7c0-0.2,0-0.5,0-0.9v-9.2c0-0.4,0-0.7,0-0.9
			c0-0.2,0.1-0.4,0.2-0.7c0.3-0.5,0.9-0.7,1.9-0.7c1,0,1.6,0.2,1.9,0.5C137,58.6,137.1,59.1,137.1,59.7z"/>
	</g>
</g>
</svg>
